<?xml version="1.0" encoding="UTF-8" standalone="no"?>
<!DOCTYPE svg PUBLIC "-//W3C//DTD SVG 1.1//EN" "http://www.w3.org/Graphics/SVG/1.1/DTD/svg11.dtd">
<svg width="100%" height="100%" viewBox="0 0 612 1047" version="1.1" xmlns="http://www.w3.org/2000/svg" xmlns:xlink="http://www.w3.org/1999/xlink" xml:space="preserve" xmlns:serif="http://www.serif.com/" style="fill-rule:evenodd;clip-rule:evenodd;stroke-linejoin:round;stroke-miterlimit:2;">
    <g transform="matrix(1,0,0,1,-275.332,-230.748)">
        <g>
            <g transform="matrix(0.99058,0,0,0.982224,-538.384,11.1189)">
                <path d="M908.396,789.052C908.396,789.052 1230.69,472.195 1330.49,634.326C1533.94,964.821 908.396,789.052 908.396,789.052Z" style="fill:rgb(239,206,173);"/>
                <g>
                    <g transform="matrix(1,0,0,1,942.691,-1.30979)">
                        <g transform="matrix(1.12339,0.383291,-0.322913,0.946429,-391.322,-303.128)">
                            <path d="M836.119,235.589C850.49,236.55 860.446,244.242 860.667,247.778C861.185,256.083 845.09,256.44 836.346,256.544C820.062,256.737 802.994,249.163 802.659,246.05C801.77,237.79 819.86,234.501 836.119,235.589Z" style="fill:rgb(161,122,105);"/>
                        </g>
                        <g transform="matrix(1.01923,0,0,1,-385.109,-28.6126)">
                            <path d="M338.63,966.367C338.63,966.367 333.589,945.429 335.938,929.553C337.535,918.76 468.058,958.32 618.944,949.602C669.494,946.682 808.249,934.849 822.139,925.46C836.029,916.072 830.13,945.429 822.289,951.73C806.032,964.794 707.663,977.154 608.343,979.286C478.237,982.079 340.584,960.704 338.63,966.367Z" style="fill:rgb(190,115,85);"/>
                        </g>
                        <g transform="matrix(1,0,0,1,-371.104,0)">
                            <path d="M338.63,966.367C338.63,966.367 322.651,961.647 331.626,939.32C335.698,929.191 468.058,958.32 618.944,949.602C669.494,946.682 808.249,934.849 822.139,925.46C836.029,916.072 820.398,950.007 812.557,956.308C775.003,986.486 344.188,975.756 338.63,966.367Z" style="fill:rgb(190,115,85);"/>
                        </g>
                        <g transform="matrix(1,0,0,1,-371.104,0)">
                            <path d="M359.275,922.098L359.275,1019.99L361.122,1216.13C361.122,1216.13 368.114,1259.9 421.577,1263.26C464.29,1265.94 604.067,1283.89 684.257,1270C714.062,1264.83 775.809,1248.98 776.023,1221.57C776.352,1179.47 774.371,942.977 774.371,933.661" style="fill:rgb(190,115,85);"/>
                        </g>
                        <g transform="matrix(1,0,0,1,-371.104,0)">
                            <path d="M339.572,968.048C339.572,968.048 333.513,1005.2 369.909,1010.51C406.305,1015.83 705.552,1022.34 744.044,1016.57C782.537,1010.81 786.917,1008.08 798.456,996.784C811.02,984.487 819.912,953.52 805.505,959.95C735.113,991.366 339.572,968.048 339.572,968.048Z" style="fill:rgb(190,115,85);"/>
                        </g>
                        <g transform="matrix(1,0,0,1,-371.104,0)">
                            <path d="M335.523,790.959C335.523,790.959 316.014,790.506 300.377,758.732C284.74,726.957 296.756,723.233 296.067,699.385C295.528,680.738 264.514,668.736 283.58,576.672C302.645,484.609 410.564,408.216 483.648,408.383C556.732,408.55 610.918,411.978 650.721,460.477C690.524,508.975 701.137,488.64 712.398,536.918C717.531,558.927 713.324,557.588 720.184,577.085C720.775,578.764 725.179,591.207 725.894,592.963C734.925,615.122 741.732,613.824 757.62,636.233" style="fill:none;"/>
                        </g>
                        <g transform="matrix(1,0,0,1,-371.104,0)">
                            <path d="M802.168,238.619L702.816,509.895C702.816,509.895 716.279,539.241 715.789,556.518C715.461,568.065 724.138,594.746 739.921,615.661C741.816,618.171 864.472,262.94 865.44,263.621C866.593,264.433 857.955,269.112 833.006,259.794C814.067,252.721 802.168,238.619 802.168,238.619Z" style="fill:rgb(206,170,154);"/>
                        </g>
                        <g transform="matrix(1,0,0,1,-371.104,0)">
                            <path d="M758.848,637.39C758.848,637.39 822.377,694.063 825.609,773.029C827.248,813.08 824.508,814.559 816.186,838.683C807.864,862.808 826.85,862.639 835.904,872.947C848.001,886.719 845.119,899.518 842.193,908.113C838.293,919.573 830.945,935.071 803.206,936.668C775.466,938.265 766.759,895.421 749.66,921.857C740.164,936.538 748.674,975.668 730.097,994.077C711.52,1012.49 704.769,1025.55 717.042,1061.61C729.315,1097.67 727.578,1125.35 709.084,1139.3C690.591,1153.25 677.396,1150.27 664.031,1120.51C650.665,1090.75 661.086,1023.13 675.208,1006.74C689.33,990.348 707.571,946.134 702.696,934.618C697.82,923.102 689.279,917.108 685.244,941.737C681.209,966.366 685.127,962.965 664.701,961.788C644.274,960.611 657.335,951.239 640.103,944.431C622.87,937.622 607.499,902.512 597.946,934.284C590.745,958.233 577.107,969.498 570.078,963.418C547.057,943.506 522.892,912.427 517.428,940.418C511.964,968.409 559.723,994.059 530.45,1045.07C519.791,1063.64 504.147,1072.65 479.097,1052.81C454.047,1032.98 463.749,994.691 468.726,963.773C473.147,936.301 466.493,929.6 439.174,922.54C411.855,915.479 377.741,928.691 349.665,912.299C321.589,895.908 326.726,887.497 326.853,877.384C327.167,852.443 335.626,846.253 331.885,832.779C324.039,804.527 325.652,793.741 341.96,789.454C358.267,785.167 356.201,789.787 383.941,784.155C411.681,778.523 437.992,763.813 446.229,790.459C454.467,817.105 496.329,811.389 507.005,778.271C517.68,745.152 538.947,719.43 585.853,727.836C632.758,736.242 638.222,717.161 661.002,698.5C683.782,679.839 700.679,675.805 723.543,677.822C746.407,679.839 758.848,637.39 758.848,637.39Z" style="fill:rgb(161,122,105);"/>
                        </g>
                    </g>
                    <g transform="matrix(1,0,0,1,572.872,-1.90751)">
                        <path d="M335.523,790.959C335.523,790.959 316.014,790.506 300.377,758.732C284.74,726.957 296.756,723.233 296.067,699.385C295.528,680.738 264.514,668.736 283.58,576.672C302.645,484.609 410.564,408.216 483.648,408.383C556.732,408.55 610.918,411.978 650.721,460.477C690.524,508.975 701.137,488.64 712.398,536.918C717.531,558.927 713.324,557.588 720.184,577.085C720.775,578.764 725.179,591.207 725.894,592.963C734.925,615.122 335.523,790.959 335.523,790.959Z" style="fill:rgb(239,206,173);"/>
                    </g>
                </g>
                <path d="M908.396,789.052C908.396,789.052 1097.71,771.962 1146.02,706.833" style="fill:none;"/>
            </g>
            <g transform="matrix(1.01923,0,0,1,-14.0053,-28.6126)">
                <path d="M338.63,966.367C338.63,966.367 333.589,945.429 335.938,929.553C337.535,918.76 468.058,958.32 618.944,949.602C669.494,946.682 808.249,934.849 822.139,925.46C836.029,916.072 830.13,945.429 822.289,951.73C806.032,964.794 707.663,977.154 608.343,979.286C478.237,982.079 340.584,960.704 338.63,966.367Z" style="fill:none;stroke:black;stroke-width:4.08px;stroke-linecap:round;stroke-miterlimit:1.5;"/>
            </g>
            <path d="M338.63,966.367C338.63,966.367 322.651,961.647 331.626,939.32C335.698,929.191 468.058,958.32 618.944,949.602C669.494,946.682 808.249,934.849 822.139,925.46C836.029,916.072 820.398,950.007 812.557,956.308C775.003,986.486 344.188,975.756 338.63,966.367Z" style="fill:none;stroke:black;stroke-width:4.12px;stroke-linecap:round;stroke-miterlimit:1.5;"/>
            <g transform="matrix(1.12339,0.383291,-0.322913,0.946429,-20.218,-303.128)">
                <path d="M836.119,235.589C850.49,236.55 860.446,244.242 860.667,247.778C861.185,256.083 845.09,256.44 836.346,256.544C820.062,256.737 802.994,249.163 802.659,246.05C801.77,237.79 819.86,234.501 836.119,235.589Z" style="fill:none;stroke:black;stroke-width:3.75px;stroke-linecap:round;stroke-miterlimit:1.5;"/>
            </g>
            <path d="M339.572,968.048C339.572,968.048 333.513,1005.2 369.909,1010.51C406.305,1015.83 705.552,1022.34 744.044,1016.57C782.537,1010.81 786.917,1008.08 798.456,996.784C811.02,984.487 819.912,953.52 805.505,959.95C735.113,991.366 339.572,968.048 339.572,968.048Z" style="fill:none;stroke:black;stroke-width:4.12px;stroke-linecap:round;stroke-miterlimit:1.5;"/>
            <path d="M359.275,922.098L359.275,1019.99L361.122,1216.13C361.122,1216.13 368.114,1259.9 421.577,1263.26C464.29,1265.94 604.067,1283.89 684.257,1270C714.062,1264.83 775.809,1248.98 776.023,1221.57C776.352,1179.47 774.371,942.977 774.371,933.661" style="fill:none;stroke:black;stroke-width:4.12px;stroke-linecap:round;stroke-miterlimit:1.5;"/>
            <path d="M335.523,790.959C335.523,790.959 316.014,790.506 300.377,758.732C284.74,726.957 296.756,723.233 296.067,699.385C295.528,680.738 264.514,668.736 283.58,576.672C302.645,484.609 410.564,408.216 483.648,408.383C556.732,408.55 610.918,411.978 650.721,460.477C690.524,508.975 701.137,488.64 712.398,536.918C717.531,558.927 713.324,557.588 720.184,577.085C720.775,578.764 725.179,591.207 725.894,592.963C734.925,615.122 741.732,613.824 757.62,636.233" style="fill:none;stroke:black;stroke-width:4.12px;stroke-linecap:round;stroke-miterlimit:1.5;"/>
            <path d="M802.168,238.619L702.816,509.895C702.816,509.895 716.279,539.241 715.789,556.518C715.461,568.065 724.138,594.746 739.921,615.661C741.816,618.171 864.472,262.94 865.44,263.621C866.593,264.433 857.955,269.112 833.006,259.794C814.067,252.721 802.168,238.619 802.168,238.619Z" style="fill:none;stroke:black;stroke-width:4.12px;stroke-linecap:round;stroke-miterlimit:1.5;"/>
            <path d="M758.848,637.39C758.848,637.39 822.377,694.063 825.609,773.029C827.248,813.08 824.508,814.559 816.186,838.683C807.864,862.808 826.85,862.639 835.904,872.947C848.001,886.719 845.119,899.518 842.193,908.113C838.293,919.573 830.945,935.071 803.206,936.668C775.466,938.265 766.759,895.421 749.66,921.857C740.164,936.538 748.674,975.668 730.097,994.077C711.52,1012.49 704.769,1025.55 717.042,1061.61C729.315,1097.67 727.578,1125.35 709.084,1139.3C690.591,1153.25 677.396,1150.27 664.031,1120.51C650.665,1090.75 661.086,1023.13 675.208,1006.74C689.33,990.348 707.571,946.134 702.696,934.618C697.82,923.102 689.279,917.108 685.244,941.737C681.209,966.366 685.127,962.965 664.701,961.788C644.274,960.611 657.335,951.239 640.103,944.431C622.87,937.622 607.499,902.512 597.946,934.284C590.745,958.233 577.107,969.498 570.078,963.418C547.057,943.506 522.892,912.427 517.428,940.418C511.964,968.409 559.723,994.059 530.45,1045.07C519.791,1063.64 504.147,1072.65 479.097,1052.81C454.047,1032.98 463.749,994.691 468.726,963.773C473.147,936.301 466.493,929.6 439.174,922.54C411.855,915.479 377.741,928.691 349.665,912.299C321.589,895.908 326.726,887.497 326.853,877.384C327.167,852.443 335.626,846.253 331.885,832.779C324.039,804.527 325.652,793.741 341.96,789.454C358.267,785.167 356.201,789.787 383.941,784.155C411.681,778.523 437.992,763.813 446.229,790.459C454.467,817.105 496.329,811.389 507.005,778.271C517.68,745.152 538.947,719.43 585.853,727.836C632.758,736.242 638.222,717.161 661.002,698.5C669.011,691.94 676.292,687.187 683.362,683.869C696.4,677.75 708.717,676.514 723.543,677.822C746.407,679.839 758.848,637.39 758.848,637.39Z" style="fill:none;stroke:black;stroke-width:4.12px;stroke-linecap:round;stroke-miterlimit:1.5;"/>
        </g>
    </g>
</svg>
