<?xml version="1.0" encoding="UTF-8" standalone="no"?>
<!DOCTYPE svg PUBLIC "-//W3C//DTD SVG 1.1//EN" "http://www.w3.org/Graphics/SVG/1.1/DTD/svg11.dtd">
<svg width="100%" height="100%" viewBox="0 0 970 702" version="1.1" xmlns="http://www.w3.org/2000/svg" xmlns:xlink="http://www.w3.org/1999/xlink" xml:space="preserve" xmlns:serif="http://www.serif.com/" style="fill-rule:evenodd;clip-rule:evenodd;stroke-linecap:round;stroke-linejoin:round;stroke-miterlimit:1.5;">
    <g transform="matrix(1,0,0,1,-1447.55,-679.032)">
        <g>
            <g transform="matrix(1,0,0,1,82.0845,1.8505)">
                <path d="M1500.47,1045.44C1500.47,1045.44 1457.26,1025.46 1454.14,999.939C1451.01,974.416 1447.82,965.881 1451.99,955.463C1456.15,945.046 1493.49,965.752 1542.21,980.717C1556.18,985.006 1507.23,1026.58 1500.47,1045.44Z" style="fill:rgb(140,140,140);"/>
                <path d="M1542.13,1148.92C1542.13,1148.92 1583.09,1077.91 1621.92,1068.09C1638.98,1063.78 1654.81,1072.03 1667.81,1076.69C1689.25,1084.37 1693.62,1061.04 1693.62,1047.36C1693.62,1033.69 1672.09,1015.5 1658.04,1010.28C1615.98,994.624 1590.97,1033.6 1549.7,1093.56C1530.13,1122 1542.13,1148.92 1542.13,1148.92Z"/>
                <path d="M1547.98,985.264C1547.98,985.264 1452.8,1087.07 1481.43,1156.05C1499.34,1199.18 1539.22,1151.16 1542.48,1147.91C1542.48,1147.91 1530.04,1123.76 1551.13,1088.52C1555.1,1081.89 1579.59,1047.59 1585.92,1041.36C1601.97,1025.58 1622.3,993.709 1655.22,1004.54C1655.22,1004.54 1672.83,970.019 1547.98,985.264Z" style="fill:rgb(77,77,77);"/>
                <path d="M1628.61,701.594L1643.22,687.055C1643.22,687.055 1645.51,683.707 1653.17,688.041C1660.84,692.375 1701.05,707.242 1705.71,711.909C1710.38,716.576 1694.35,734.45 1688.24,731.778C1683.98,729.911 1628.61,701.594 1628.61,701.594Z" style="fill:rgb(77,77,77);"/>
                <path d="M1393.85,755.419C1393.85,755.419 1381.97,896.218 1398.25,915.751C1414.53,935.284 1508.12,982.488 1579.74,982.488C1651.36,982.488 1692.87,945.864 1706.7,927.145C1720.54,908.427 1722.98,851.456 1725.42,837.62C1726.96,828.928 1648.13,896.804 1529.99,866.105C1475.27,851.885 1398.65,833.396 1393.85,755.419Z" style="fill:rgb(140,140,140);"/>
                <path d="M1432.09,705.682C1432.09,705.682 1501.8,660.512 1620.83,699.375C1727.87,734.322 1749.82,809.603 1720.44,836.715C1702.99,852.821 1573.29,910.894 1448.94,837.364C1407.08,812.611 1401.64,797.563 1397.84,780.6C1393.36,760.611 1396.88,728.402 1432.09,705.682Z" style="fill:rgb(179,179,179);"/>
                <path d="M1734.99,1082.59C1734.99,1082.59 1748.47,973.818 1800.63,970.837C1852.79,967.857 2297.34,1190.98 2297.34,1190.98C2297.34,1190.98 2248.54,1208.09 2219.97,1244.69C2184.22,1290.48 2187.66,1326.23 2182.96,1342.69C2181.88,1346.46 1734.99,1082.59 1734.99,1082.59Z" style="fill:rgb(128,128,128);"/>
                <g transform="matrix(1.21154,0.644398,-0.645818,1.21421,332.636,-1747.57)">
                    <path d="M2281.89,1216.02C2305.42,1216.02 2323.17,1245.42 2323.17,1286.02C2323.17,1326.63 2298.44,1364.19 2274.91,1364.19C2251.37,1364.19 2236.89,1337.88 2236.89,1297.27C2236.89,1256.67 2258.35,1216.02 2281.89,1216.02Z" style="fill:rgb(190,115,85);"/>
                </g>
                <g transform="matrix(1,0,0,1,3.052,-1.01732)">
                    <path d="M1740.5,1050.12L1620.05,1004.83C1620.05,1004.83 1637.18,917.299 1704.67,925.256C1721.3,927.216 1783.51,962.132 1790.15,970.65C1793.41,974.834 1755.45,1002.78 1740.5,1050.12Z" style="fill:none;stroke:black;stroke-width:4.17px;"/>
                </g>
                <path d="M1497.55,859.391C1497.55,859.391 1478.67,878.11 1467.6,879.412C1462.66,879.994 1452.65,875.901 1442.74,870.496C1430.46,863.799 1418.33,855.088 1416.16,850.764C1412.26,842.951 1433.09,827.325 1433.09,827.325L1497.55,859.391Z" style="fill:rgb(77,77,77);"/>
            </g>
            <g transform="matrix(1,0,0,1,59.967,-2.48368)">
                <path d="M1431.96,823.486C1431.96,823.486 1505.21,777.096 1576.02,794.187C1646.82,811.278 1663.1,840.577 1674.49,855.227" style="fill:none;stroke:black;stroke-width:4.17px;"/>
                <path d="M1403.63,762.448C1403.63,762.448 1468.32,703.801 1590.82,733.148C1682.58,755.129 1711.28,807.21 1712.9,838.137" style="fill:none;stroke:black;stroke-width:4.17px;"/>
                <path d="M1500.47,1045.44C1500.47,1045.44 1457.26,1025.46 1454.14,999.939C1451.01,974.416 1447.82,965.881 1451.99,955.463C1456.15,945.046 1493.49,965.752 1542.21,980.717C1556.18,985.006 1507.23,1026.58 1500.47,1045.44Z" style="fill:none;stroke:black;stroke-width:4.17px;"/>
                <path d="M1542.13,1148.92C1542.13,1148.92 1583.09,1077.91 1621.92,1068.09C1638.98,1063.78 1654.81,1072.03 1667.81,1076.69C1689.25,1084.37 1693.62,1061.04 1693.62,1047.36C1693.62,1033.69 1672.09,1015.5 1658.04,1010.28C1615.98,994.624 1590.97,1033.6 1549.7,1093.56C1530.13,1122 1542.13,1148.92 1542.13,1148.92Z" style="fill:none;stroke:black;stroke-width:4.17px;"/>
                <path d="M1547.98,985.264C1547.98,985.264 1452.8,1087.07 1481.43,1156.05C1499.34,1199.18 1539.22,1151.16 1542.48,1147.91C1542.48,1147.91 1530.04,1123.76 1551.13,1088.52C1555.1,1081.89 1579.59,1047.59 1585.92,1041.36C1601.97,1025.58 1622.3,993.709 1655.22,1004.54C1655.22,1004.54 1672.83,970.019 1547.98,985.264Z" style="fill:none;stroke:black;stroke-width:4.17px;"/>
                <path d="M1497.55,859.391C1497.55,859.391 1478.67,878.11 1467.6,879.412C1456.53,880.715 1420.07,858.577 1416.16,850.764C1412.26,842.951 1433.09,827.325 1433.09,827.325L1497.55,859.391Z" style="fill:none;stroke:black;stroke-width:4.17px;"/>
                <path d="M1631.01,695.193L1643.22,687.055C1643.22,687.055 1643.37,685.574 1651.04,689.908C1658.71,694.241 1701.05,707.242 1705.71,711.909C1710.38,716.576 1697.05,723.244 1693.05,728.577C1689.04,733.911 1631.01,695.193 1631.01,695.193Z" style="fill:none;stroke:black;stroke-width:4.17px;"/>
                <path d="M1393.85,755.419C1393.85,755.419 1381.97,896.218 1398.25,915.751C1414.53,935.284 1508.12,982.488 1579.74,982.488C1651.36,982.488 1692.87,945.864 1706.7,927.145C1720.54,908.427 1722.98,851.456 1725.42,837.62C1726.96,828.928 1648.13,896.804 1529.99,866.105C1475.27,851.885 1398.65,833.396 1393.85,755.419Z" style="fill:none;stroke:black;stroke-width:4.17px;"/>
                <path d="M1432.09,705.682C1432.09,705.682 1501.8,660.512 1620.83,699.375C1727.87,734.322 1749.82,809.603 1720.44,836.715C1702.99,852.821 1573.29,910.894 1448.94,837.364C1407.08,812.611 1401.64,797.563 1397.84,780.6C1393.36,760.611 1396.88,728.402 1432.09,705.682Z" style="fill:none;stroke:black;stroke-width:4.17px;"/>
                <path d="M1734.99,1082.59C1734.99,1082.59 1748.47,973.818 1800.63,970.837C1852.79,967.857 2297.34,1190.98 2297.34,1190.98C2297.34,1190.98 2248.54,1208.09 2219.97,1244.69C2184.22,1290.48 2187.66,1326.23 2182.96,1342.69C2181.88,1346.46 1734.99,1082.59 1734.99,1082.59Z" style="fill:none;stroke:black;stroke-width:4.17px;"/>
                <g transform="matrix(1.21154,0.644398,-0.645818,1.21421,332.636,-1747.57)">
                    <path d="M2281.89,1216.02C2305.42,1216.02 2323.17,1245.42 2323.17,1286.02C2323.17,1326.63 2298.44,1364.19 2274.91,1364.19C2251.37,1364.19 2236.89,1337.88 2236.89,1297.27C2236.89,1256.67 2258.35,1216.02 2281.89,1216.02Z" style="fill:none;stroke:black;stroke-width:3.03px;"/>
                </g>
            </g>
        </g>
    </g>
</svg>
